<?xml version="1.0" encoding="iso-8859-1"?>
<!-- Generator: Adobe Illustrator 19.0.0, SVG Export Plug-In . SVG Version: 6.00 Build 0)  -->
<svg version="1.1" id="Layer_1" xmlns="http://www.w3.org/2000/svg" x="0px" y="0px"
	 viewBox="0 0 512.004 512.004" style="enable-background:new 0 0 512.004 512.004;" xml:space="preserve">
<g>
	<g>
		<path style="fill:#6495ED" d="M469.64,128.441c-18.236-5.332-37.411-3.266-53.989,5.813l-0.706,0.387l-21.136,14.235l-5.748,3.996l-89.993,62.541
			c-31.071,21.594-67.63,33.008-105.724,33.008c-41.093,0-80.476-13.334-112.568-37.074c-16.17,3.584-31.044,10.092-43.423,19.171
			c-20.775,15.235-32.217,35.836-32.217,58.008c0,22.172,11.442,42.773,32.217,58.008c17.802,13.055,40.759,20.782,65.32,22.147
			V382.2c0,19.782-16.095,35.877-35.878,35.877v35.101c39.138,0,70.98-31.84,70.98-70.978v-15.989
			c17.122-3.453,32.885-10.137,45.892-19.675c7.59-5.567,13.929-11.853,18.925-18.666v54.331c0,19.782-16.095,35.877-35.877,35.877
			v35.101c39.138,0,70.978-31.84,70.978-70.978v-51.705c3.31,0.618,6.717,0.957,10.205,0.957c9.456,0,18.365-2.387,26.162-6.58
			v57.329c0,39.138,31.842,70.978,70.98,70.978v-35.101c-19.783,0-35.878-16.095-35.878-35.877v-99.867
			c1.788,0.776,3.61,1.494,5.479,2.122c4.874,1.64,10.663,2.346,17.017,2.346c36.296,0,90.962-23.017,98.053-26.07l11.975-5.156
			l-6.419-11.349c-2.689-4.754-18.294-31.849-37.425-55.07l36.312-24.457c8.206-4.282,17.638-5.196,26.64-2.565
			c9.239,2.7,16.845,8.788,21.421,17.141l30.787-16.86C502.922,145.837,487.878,133.772,469.64,128.441z"/>
	</g>
</g>
<g>
	<g>
		<path style="fill:#f5f5f5"  d="M243.114,58.823c-29.87,0-60.007,8.812-86.286,27.215l-50.142,34.847h30.668c21.607,0,37.348-5.547,60.564-16.472
			l14.945,31.761c-26.664,12.549-47.568,19.814-75.509,19.814L0,156.496v35.101h113.342c23.961,14.255,51.39,21.722,79.001,21.722
			c29.73,0,59.656-8.636,85.693-26.731l89.992-62.541C338.562,81.649,291.186,58.823,243.114,58.823z"/>
	</g>
</g>
</svg>
